HIERARCHY
ROOT SpineBase
{
  OFFSET 0.000000 0.000000 0.000000
  CHANNELS 6 Xposition Yposition Zposition Zrotation Xrotation Yrotation
  JOINT SpineMid
  {
    OFFSET 0.000000 29.573879 0.000000
    CHANNELS 3 Zrotation Xrotation Yrotation
    JOINT SpineShoulder
    {
      OFFSET -0.120875 22.043004 -0.783766
      CHANNELS 3 Zrotation Xrotation Yrotation
      JOINT Neck
      {
        OFFSET -0.051899 7.312997 -0.581774
        CHANNELS 3 Zrotation Xrotation Yrotation
        JOINT Head
        {
          OFFSET -2.897848 13.815888 0.918057
          CHANNELS 3 Zrotation Xrotation Yrotation
          End Site
          {
            OFFSET 0 0 0
          }
        }
      }
      JOINT ShoulderLeft
      {
        OFFSET -17.247375 -4.215596 5.251579
        CHANNELS 3 Zrotation Xrotation Yrotation
        JOINT ElbowLeft
        {
          OFFSET -0.893338 -25.597951 -0.679627
          CHANNELS 3 Zrotation Xrotation Yrotation
          JOINT WristLeft
          {
            OFFSET 0.282700 -21.868084 -9.595116
            CHANNELS 3 Zrotation Xrotation Yrotation
            JOINT HandLeft
            {
              OFFSET 0.576080 -4.533060 -1.869135
              CHANNELS 3 Zrotation Xrotation Yrotation
              JOINT HandTipLeft
              {
                OFFSET 2.305754 -8.367698 -2.081045
                CHANNELS 3 Zrotation Xrotation Yrotation
                End Site
                {
                  OFFSET 0 0 0
                }
              }
              JOINT ThumbLeft
              {
                OFFSET 4.334174 -0.374484 -4.563867
                CHANNELS 3 Zrotation Xrotation Yrotation
                End Site
                {
                  OFFSET 0 0 0
                }
              }
            }
          }
        }
      }
      JOINT ShoulderRight
      {
        OFFSET 13.979599 -3.381487 -7.637107
        CHANNELS 3 Zrotation Xrotation Yrotation
        JOINT ElbowRight
        {
          OFFSET 2.567286 -24.921292 -2.584958
          CHANNELS 3 Zrotation Xrotation Yrotation
          JOINT WristRight
          {
            OFFSET -5.027596 -21.187981 -6.114574
            CHANNELS 3 Zrotation Xrotation Yrotation
            JOINT HandRight
            {
              OFFSET -1.896313 -3.542273 0.197709
              CHANNELS 3 Zrotation Xrotation Yrotation
              JOINT HandTipRight
              {
                OFFSET -0.850088 -4.611732 -1.314771
                CHANNELS 3 Zrotation Xrotation Yrotation
                End Site
                {
                  OFFSET 0 0 0
                }
              }
              JOINT ThumbRight
              {
                OFFSET 1.708500 -1.905410 -3.509894
                CHANNELS 3 Zrotation Xrotation Yrotation
                End Site
                {
                  OFFSET 0 0 0
                }
              }
            }
          }
        }
      }
    }
  }
  JOINT HipLeft
  {
    OFFSET -6.900771 0.809072 -1.192208
    CHANNELS 3 Zrotation Xrotation Yrotation
    JOINT KneeLeft
    {
      OFFSET -2.081739 -28.402824 -1.826381
      CHANNELS 3 Zrotation Xrotation Yrotation
      JOINT AnkleLeft
      {
        OFFSET -0.836223 -30.614920 1.776002
        CHANNELS 3 Zrotation Xrotation Yrotation
        JOINT FootLeft
        {
          OFFSET -3.491182 -3.591529 -12.525552
          CHANNELS 3 Zrotation Xrotation Yrotation
          End Site
          {
            OFFSET 0 0 0
          }
        }
      }
    }
  }
  JOINT HipRight
  {
    OFFSET 7.015300 0.920624 -5.626081
    CHANNELS 3 Zrotation Xrotation Yrotation
    JOINT KneeRight
    {
      OFFSET 6.812959 -27.779093 3.374640
      CHANNELS 3 Zrotation Xrotation Yrotation
      JOINT AnkleRight
      {
        OFFSET 3.676592 -32.322923 13.179483
        CHANNELS 3 Zrotation Xrotation Yrotation
        JOINT FootRight
        {
          OFFSET -0.238183 -6.750566 -6.787047
          CHANNELS 3 Zrotation Xrotation Yrotation
          End Site
          {
            OFFSET 0 0 0
          }
        }
      }
    }
  }
}
MOTION
Frames: 16
Frame Time: 0.033333
-9.563230 72.333739 370.796865 -0.000000 0.000000 17.672673 0.000000 0.000000 -17.672673 -0.000000 0.000000 0.000000 -0.000000 0.000000 0.000000 0.000000 0.000000 0.000000 -0.000000 0.000000 0.000000 -0.000000 0.000000 0.000000 -0.000000 0.000000 0.000000 -0.000000 0.000000 0.000000 0.000000 0.000000 0.000000 0.000000 0.000000 0.000000 -0.000000 0.000000 0.000000 -0.000000 0.000000 0.000000 -0.000000 0.000000 0.000000 -0.000000 0.000000 0.000000 0.000000 0.000000 0.000000 0.000000 0.000000 0.000000 0.000000 0.000000 -17.672673 -0.000000 0.000000 0.000000 -0.000000 0.000000 0.000000 0.000000 0.000000 0.000000 0.000000 0.000000 -17.672673 -0.000000 0.000000 0.000000 -0.000000 0.000000 0.000000 0.000000 0.000000 0.000000
-9.860106 72.352378 370.553102 0.498911 -0.297651 16.746390 -0.392000 0.428771 -16.743628 -0.000000 0.000000 0.000000 -0.000000 0.000000 0.000000 0.000000 0.000000 0.000000 -0.930629 -1.886254 0.075234 0.061231 -1.889320 0.230044 -2.025576 -1.373383 0.241951 -0.459189 4.380818 0.236563 0.000000 0.000000 0.000000 0.000000 0.000000 0.000000 0.349721 -0.849849 -0.121286 1.314428 0.486676 -0.288433 -0.224420 3.160599 -1.071187 -1.392199 -2.831884 1.393149 0.000000 0.000000 0.000000 0.000000 0.000000 0.000000 -0.392000 0.428771 -16.743628 -0.000000 0.000000 0.000000 0.244915 0.016504 -0.871585 0.000000 0.000000 0.000000 0.325166 0.998315 -16.504713 0.397859 1.264033 0.350975 -3.951717 7.213628 2.105778 0.000000 0.000000 0.000000
-10.051332 72.368244 370.311932 0.910194 -0.532383 15.914128 -0.047279 0.058463 -15.882444 -0.062053 0.021456 0.031867 -0.786145 0.468515 -0.056023 0.000000 0.000000 0.000000 -2.450314 -3.062616 0.073760 0.074435 -3.578066 0.395487 -3.526073 -2.031368 0.483723 -1.552989 7.369554 0.791885 0.000000 0.000000 0.000000 0.000000 0.000000 0.000000 0.046747 -1.132095 -0.302749 2.431672 0.949388 -0.603541 -0.120530 5.751425 -1.959824 -2.993396 -5.234314 2.459053 0.000000 0.000000 0.000000 0.000000 0.000000 0.000000 -0.439316 -0.240779 -15.877126 -0.553248 0.884664 -0.024973 0.455843 0.035749 -1.629081 0.000000 0.000000 0.000000 0.520930 1.786630 -15.495341 0.713551 2.453003 0.638268 -6.525625 11.371778 3.244329 0.000000 0.000000 0.000000
-10.136907 72.381336 370.073354 1.233459 -0.703945 15.179168 -0.078781 0.084093 -15.134749 -0.089421 0.029796 0.042213 -1.045109 0.615122 -0.073204 0.000000 0.000000 0.000000 -3.239196 -4.313598 0.086322 0.048683 -4.999322 0.503195 -4.509026 -2.016333 0.715334 -3.169662 8.919524 1.512326 0.000000 0.000000 0.000000 0.000000 0.000000 0.000000 0.406394 -1.640383 -0.443563 3.305389 1.406531 -0.925812 0.361365 7.869821 -2.733898 -3.725154 -6.495106 2.920336 0.000000 0.000000 0.000000 0.000000 0.000000 0.000000 -0.628830 -0.377617 -15.121055 -0.240522 0.437796 0.006761 0.149271 0.854302 -2.327943 0.000000 0.000000 0.000000 0.605910 2.360150 -14.639802 0.944467 3.556428 0.864322 -7.839334 13.360280 3.514516 0.000000 0.000000 0.000000
-10.116830 72.391654 369.837368 1.468406 -0.812160 14.543840 -0.115541 0.107469 -14.490082 -0.114419 0.036489 0.048772 -1.213986 0.702702 -0.084196 0.000000 0.000000 0.000000 -3.732891 -5.371657 0.092159 -0.008209 -6.103311 0.560088 -5.027880 -1.431835 0.918867 -5.104092 9.097505 2.186163 0.000000 0.000000 0.000000 0.000000 0.000000 0.000000 0.992259 -2.115128 -0.576621 3.890016 1.873510 -1.235537 1.287242 9.585059 -3.442348 -4.398336 -7.890099 3.245296 0.000000 0.000000 0.000000 0.000000 0.000000 0.000000 -0.798676 -0.523020 -14.465188 -0.376908 0.431914 0.000751 0.328430 1.174490 -2.869007 0.000000 0.000000 0.000000 0.594901 2.715325 -13.935354 1.089749 4.568670 1.032838 -8.028230 13.724330 3.047035 0.000000 0.000000 0.000000
-9.991103 72.399198 369.603973 1.614809 -0.856902 14.009658 -0.157521 0.128714 -13.950616 -0.137077 0.041511 0.051504 -1.292424 0.730971 -0.089441 0.000000 0.000000 0.000000 -3.929504 -6.234975 0.097173 -0.089276 -6.853425 0.571584 -5.150049 -0.397866 1.073047 -7.125539 8.035706 2.602926 0.000000 0.000000 0.000000 0.000000 0.000000 0.000000 1.806519 -2.558968 -0.700731 4.144675 2.361037 -1.513720 2.729210 10.947449 -4.118870 -4.863320 -8.991958 3.351121 0.000000 0.000000 0.000000 0.000000 0.000000 0.000000 -0.949385 -0.675413 -13.912325 -0.541203 0.349504 -0.009143 0.572485 1.514337 -3.293817 0.000000 0.000000 0.000000 0.498780 2.849333 -13.381037 1.149506 5.487659 1.148199 -7.165596 12.672096 1.924434 0.000000 0.000000 0.000000
-9.756530 72.394281 369.356815 1.544293 -0.766105 13.146067 -0.218511 0.140316 -13.092539 -0.153907 0.037237 0.044606 -0.313174 0.581054 -0.157047 0.000000 0.000000 0.000000 -3.735479 -6.959558 0.111446 -0.089751 -7.459975 0.501237 -4.985422 1.144281 1.204438 -9.772113 4.345177 2.242657 0.000000 0.000000 0.000000 0.000000 0.000000 0.000000 3.110238 -3.121306 -0.817314 3.714540 3.769768 -1.904838 4.479693 13.376690 -6.007450 -4.710735 -11.386344 4.519223 0.000000 0.000000 0.000000 0.000000 0.000000 0.000000 -0.737050 -1.101844 -13.044975 -1.094813 0.214945 -0.010928 1.046072 2.012479 -3.877689 0.000000 0.000000 0.000000 -0.008585 2.200790 -12.698338 1.535742 7.213519 1.452579 -3.474049 6.023716 -1.643326 0.000000 0.000000 0.000000
-9.363919 72.405934 369.086727 1.458952 -0.596236 12.772279 -0.284658 0.130888 -12.725539 -0.171604 0.036880 0.036911 0.685924 0.119773 -0.267867 0.000000 0.000000 0.000000 -3.385546 -7.272290 0.122740 -0.056808 -7.515037 0.407378 -3.456280 2.703587 0.582803 -13.431761 0.267512 2.251044 0.000000 0.000000 0.000000 0.000000 0.000000 0.000000 4.725630 -3.510208 -0.923782 2.530184 4.572922 -1.983752 8.199057 12.614268 -5.827713 -4.967447 -8.234976 2.594704 0.000000 0.000000 0.000000 0.000000 0.000000 0.000000 -0.804509 -1.454505 -12.655260 -1.451751 0.022378 -0.036207 1.529440 2.464762 -4.100936 0.000000 0.000000 0.000000 -0.285023 1.687440 -12.437383 1.248862 7.996787 1.424350 -1.025371 3.168515 -3.181194 0.000000 0.000000 0.000000
-8.861977 72.408927 368.820343 1.434149 -0.402839 12.696642 -0.336471 0.122235 -12.654159 -0.178704 0.039524 0.033193 1.598757 -0.297521 -0.360933 0.000000 0.000000 0.000000 -2.738216 -7.652518 0.142886 0.369343 -6.085858 0.026870 -4.256789 1.926189 1.017573 -12.472968 -1.430101 1.131718 0.000000 0.000000 0.000000 0.000000 0.000000 0.000000 6.143762 -4.192719 -1.022530 1.955026 5.209651 -2.130494 11.512950 12.663556 -5.943883 -5.660405 -10.203929 2.293244 0.000000 0.000000 0.000000 0.000000 0.000000 0.000000 -1.294810 -1.584049 -12.552868 -1.348351 -0.368882 -0.083911 1.923922 2.966634 -4.245600 0.000000 0.000000 0.000000 -0.480456 1.272139 -12.435018 0.552877 8.026547 1.185892 0.740407 2.099540 -3.598170 0.000000 0.000000 0.000000
-8.357122 72.435306 368.568060 1.358495 -0.185009 12.772116 -0.375457 0.118338 -12.735772 -0.966076 0.153163 -0.032223 3.131727 -0.890273 -0.368628 0.000000 0.000000 0.000000 -0.845017 -7.252165 0.222632 -0.244679 -6.504310 -0.025026 -4.530972 4.433807 1.643778 -13.033920 -4.817200 -0.162947 0.000000 0.000000 0.000000 0.000000 0.000000 0.000000 8.702044 -4.343247 -1.017377 1.373154 3.344104 -1.750373 16.001754 14.790344 -7.587920 -8.048726 -13.290467 2.432981 0.000000 0.000000 0.000000 0.000000 0.000000 0.000000 -1.665706 -1.398086 -12.629707 -1.185029 -1.113217 -0.112515 2.203665 3.494606 -4.230924 0.000000 0.000000 0.000000 -0.420231 0.963263 -12.524014 -0.234893 7.871656 0.909735 7.924977 -9.767227 -8.469047 0.000000 0.000000 0.000000
-7.919157 72.399249 368.468281 1.148718 -0.081039 14.225110 -0.297589 0.090170 -14.194554 -0.838062 0.067190 -0.028941 4.810502 -1.113209 -0.502476 0.000000 0.000000 0.000000 0.051735 -6.711017 0.236506 -1.316285 -5.838354 0.182916 -5.753007 3.740221 2.319375 -10.911018 -4.819656 -1.158006 0.000000 0.000000 0.000000 0.000000 0.000000 0.000000 8.963277 -3.318563 -1.008259 2.869581 0.897519 -1.832385 20.667696 14.697008 -7.467370 -10.370095 -13.258631 0.612664 0.000000 0.000000 0.000000 0.000000 0.000000 0.000000 -1.882987 -0.768011 -14.097818 -1.074572 -1.797666 -0.144367 2.284003 3.433740 -2.922523 0.000000 0.000000 0.000000 0.011125 0.858545 -13.932838 -1.063718 7.434040 0.595959 12.286314 -21.780898 -10.630941 0.000000 0.000000 0.000000
-7.325841 72.267820 368.673209 1.246857 -0.396404 16.742480 -1.079897 0.738682 -16.731205 -0.000000 0.000000 0.000000 7.673621 -1.215644 -0.675100 0.000000 0.000000 0.000000 0.416586 -6.267278 0.231050 -1.936842 -4.908507 0.375205 -6.438887 1.518471 2.363954 -8.123281 -2.069554 -1.046221 0.000000 0.000000 0.000000 0.000000 0.000000 0.000000 9.077569 -1.953140 -0.983380 4.678137 -1.874691 -1.866277 21.916408 16.950930 -9.361550 -10.104823 -18.820564 2.752904 0.000000 0.000000 0.000000 0.000000 0.000000 0.000000 -2.530533 0.988339 -16.602420 -0.585846 -2.289109 -0.197846 2.270520 2.478156 -0.813529 0.000000 0.000000 0.000000 0.134644 1.477739 -16.380258 -1.720651 6.927003 0.249325 11.562399 -22.401564 -9.006773 0.000000 0.000000 0.000000
-6.777986 71.936814 369.267820 1.397509 -1.199163 19.959851 -0.449810 0.833410 -19.920821 -0.690018 0.569525 -0.017986 10.137970 -1.056953 -0.789157 0.000000 0.000000 0.000000 0.028504 -8.455273 0.297552 -3.098048 -2.056747 1.146332 -5.649311 -0.960981 1.434786 -6.157505 5.973644 1.463562 0.000000 0.000000 0.000000 0.000000 0.000000 0.000000 7.689655 0.633029 -0.770353 7.248442 -5.769803 -1.645356 22.109510 20.249037 -12.544756 -9.383220 -21.009930 4.477108 0.000000 0.000000 0.000000 0.000000 0.000000 0.000000 -2.983538 3.602562 -19.754958 0.290623 -2.932386 -0.227431 1.877480 1.045121 2.397321 0.000000 0.000000 0.000000 0.864458 2.798180 -19.425316 -2.533271 6.166336 -0.185634 6.485510 -16.437663 -4.338483 0.000000 0.000000 0.000000
-6.082231 71.542789 370.132172 1.929684 -2.368916 23.812258 -0.595458 1.429151 -23.738154 -0.278700 -0.070330 0.014232 14.462329 1.129426 -1.369233 0.000000 0.000000 0.000000 -1.307464 -11.348082 0.373278 -5.267367 1.893724 2.868128 -3.740394 -6.188056 -0.969849 -2.748062 15.870680 3.163144 0.000000 0.000000 0.000000 0.000000 0.000000 0.000000 4.415528 5.320575 -0.416993 9.102358 -9.514933 -1.193341 21.967465 22.745814 -15.258401 -7.630948 -24.373971 7.268940 0.000000 0.000000 0.000000 0.000000 0.000000 0.000000 -3.955973 6.887318 -23.368528 1.718806 -3.140088 -0.289093 1.597268 -0.973952 6.023957 0.000000 0.000000 0.000000 1.517935 4.805727 -23.094546 -2.992601 5.342906 -0.590761 -3.124222 -4.590915 3.938027 0.000000 0.000000 0.000000
-5.192785 71.168465 370.986474 2.397841 -3.797869 27.523481 -0.091021 1.866205 -27.405347 0.060544 -0.358458 0.066145 18.936597 3.757261 -2.233206 0.000000 0.000000 0.000000 -2.620491 -16.573958 0.498827 -8.217460 5.869164 5.343642 -6.090712 -7.030973 -0.589105 7.609772 24.328972 0.108037 0.000000 0.000000 0.000000 0.000000 0.000000 0.000000 0.170249 9.639551 0.308669 9.488747 -11.524545 -1.053743 21.241488 22.892865 -15.674018 -7.437808 -24.235918 7.999822 0.000000 0.000000 0.000000 0.000000 0.000000 0.000000 -4.920657 10.416624 -26.644440 3.183442 -3.436428 -0.409356 1.625208 -1.583330 8.880313 0.000000 0.000000 0.000000 2.327686 6.966028 -26.701170 -3.069074 4.756031 -0.868067 -11.183471 0.944903 11.109635 0.000000 0.000000 0.000000
-4.449508 71.476038 371.898287 3.652664 -5.017973 33.896387 0.236748 1.882369 -33.675845 0.278853 -0.624089 0.143594 22.732230 7.096413 -3.534333 0.000000 0.000000 0.000000 -4.066090 -23.046570 0.709897 -11.330583 10.069927 8.437774 -8.472300 -8.167457 -0.323815 12.291549 24.866196 -3.150014 0.000000 0.000000 0.000000 0.000000 0.000000 0.000000 -6.740928 13.882091 1.855310 10.694849 -13.222736 -0.974547 19.862379 22.502585 -15.509699 -8.097354 -25.171398 8.942979 0.000000 0.000000 0.000000 0.000000 0.000000 0.000000 -5.251133 13.687443 -32.587600 3.893060 -3.646327 -0.532792 2.442005 -4.640738 13.009369 0.000000 0.000000 0.000000 2.642587 8.718440 -33.073848 -2.804275 5.098531 -0.821106 -18.301451 5.696376 17.140513 0.000000 0.000000 0.000000
